solid lowerWallRough
 facet normal  0.000000e+00  1.000000e+00  0.000000e+00
   outer loop
     vertex  6.000000e+00  0.000000e+00  0.000000e+00
     vertex  3.000000e+00  0.000000e+00  0.000000e+00
     vertex  3.000000e+00  0.000000e+00  6.000000e-01
   endloop
 endfacet
 facet normal  0.000000e+00  1.000000e+00 -0.000000e+00
   outer loop
     vertex  6.000000e+00  0.000000e+00  0.000000e+00
     vertex  3.000000e+00  0.000000e+00  6.000000e-01
     vertex  6.000000e+00  0.000000e+00  6.000000e-01
   endloop
 endfacet
 facet normal -7.373540e-02  9.972778e-01  0.000000e+00
   outer loop
     vertex  1.500000e+01  6.654300e-01  0.000000e+00
     vertex  6.000000e+00  0.000000e+00  0.000000e+00
     vertex  6.000000e+00  0.000000e+00  6.000000e-01
   endloop
 endfacet
 facet normal -7.373540e-02  9.972778e-01  0.000000e+00
   outer loop
     vertex  1.500000e+01  6.654300e-01  0.000000e+00
     vertex  6.000000e+00  0.000000e+00  6.000000e-01
     vertex  1.500000e+01  6.654300e-01  6.000000e-01
   endloop
 endfacet
 facet normal  1.000000e+00  0.000000e+00  0.000000e+00
   outer loop
     vertex  1.500000e+01 -1.000000e+00  0.000000e+00
     vertex  1.500000e+01  6.654300e-01  0.000000e+00
     vertex  1.500000e+01  6.654300e-01  6.000000e-01
   endloop
 endfacet
 facet normal  1.000000e+00  0.000000e+00  0.000000e+00
   outer loop
     vertex  1.500000e+01 -1.000000e+00  0.000000e+00
     vertex  1.500000e+01  6.654300e-01  6.000000e-01
     vertex  1.500000e+01 -1.000000e+00  6.000000e-01
   endloop
 endfacet
 facet normal  0.000000e+00 -1.000000e+00  0.000000e+00
   outer loop
     vertex  3.000000e+00 -1.000000e+00  0.000000e+00
     vertex  1.500000e+01 -1.000000e+00  0.000000e+00
     vertex  1.500000e+01 -1.000000e+00  6.000000e-01
   endloop
 endfacet
 facet normal  0.000000e+00 -1.000000e+00  0.000000e+00
   outer loop
     vertex  3.000000e+00 -1.000000e+00  0.000000e+00
     vertex  1.500000e+01 -1.000000e+00  6.000000e-01
     vertex  3.000000e+00 -1.000000e+00  6.000000e-01
   endloop
 endfacet
 facet normal -1.000000e+00  0.000000e+00  0.000000e+00
   outer loop
     vertex  3.000000e+00  0.000000e+00  0.000000e+00
     vertex  3.000000e+00 -1.000000e+00  0.000000e+00
     vertex  3.000000e+00 -1.000000e+00  6.000000e-01
   endloop
 endfacet
 facet normal -1.000000e+00  0.000000e+00  0.000000e+00
   outer loop
     vertex  3.000000e+00  0.000000e+00  0.000000e+00
     vertex  3.000000e+00 -1.000000e+00  6.000000e-01
     vertex  3.000000e+00  0.000000e+00  6.000000e-01
   endloop
 endfacet
 facet normal  0.000000e+00  0.000000e+00 -1.000000e+00
   outer loop
     vertex  6.000000e+00  0.000000e+00  0.000000e+00
     vertex  1.500000e+01  6.654300e-01  0.000000e+00
     vertex  1.500000e+01 -1.000000e+00  0.000000e+00
   endloop
 endfacet
 facet normal  0.000000e+00  0.000000e+00 -1.000000e+00
   outer loop
     vertex  3.000000e+00 -1.000000e+00  0.000000e+00
     vertex  6.000000e+00  0.000000e+00  0.000000e+00
     vertex  1.500000e+01 -1.000000e+00  0.000000e+00
   endloop
 endfacet
 facet normal  0.000000e+00  0.000000e+00 -1.000000e+00
   outer loop
     vertex  3.000000e+00  0.000000e+00  0.000000e+00
     vertex  6.000000e+00  0.000000e+00  0.000000e+00
     vertex  3.000000e+00 -1.000000e+00  0.000000e+00
   endloop
 endfacet
 facet normal -0.000000e+00  0.000000e+00  1.000000e+00
   outer loop
     vertex  6.000000e+00  0.000000e+00  6.000000e-01
     vertex  1.500000e+01 -1.000000e+00  6.000000e-01
     vertex  1.500000e+01  6.654300e-01  6.000000e-01
   endloop
 endfacet
 facet normal  0.000000e+00  0.000000e+00  1.000000e+00
   outer loop
     vertex  3.000000e+00 -1.000000e+00  6.000000e-01
     vertex  1.500000e+01 -1.000000e+00  6.000000e-01
     vertex  6.000000e+00  0.000000e+00  6.000000e-01
   endloop
 endfacet
 facet normal -0.000000e+00  0.000000e+00  1.000000e+00
   outer loop
     vertex  3.000000e+00  0.000000e+00  6.000000e-01
     vertex  3.000000e+00 -1.000000e+00  6.000000e-01
     vertex  6.000000e+00  0.000000e+00  6.000000e-01
   endloop
 endfacet
endsolid lowerWallRough
